<svg xmlns="http://www.w3.org/2000/svg" viewBox="0 0 165 48">
<!-- Dragon icon -->
<g transform="translate(24,26) scale(0.22)">
<path d="M-100,55 L-102,12 L-90,-25 L-98,-58 L-78,-28 L-60,-105 L-32,-22 L-5,-32 L25,-26 L55,-14 L82,0 L100,16 L92,26 L62,20 L94,42 L70,48 L35,56 L-5,64 L-55,62 Z" fill="#C0392B"/>
<path d="M-78,-28 L-60,-105 L-45,-40" fill="#A93226" opacity="0.7"/>
<path d="M-90,-25 L-98,-58 L-78,-28" fill="#A93226" opacity="0.5"/>
<path d="M62,20 L92,26 L100,16 L115,8 L125,14 L118,22 L94,42 Z" fill="#E67E22" opacity="0.85"/>
<ellipse cx="12" cy="-8" rx="9" ry="8" fill="rgba(255,255,255,0.92)"/>
<circle cx="16" cy="-8" r="4.5" fill="#1C2833"/>
<circle cx="18" cy="-10" r="1.5" fill="rgba(255,255,255,0.6)"/>
</g>
<!-- Wordmark -->
<text x="58" y="31" font-family="'Segoe UI','Helvetica Neue',Arial,sans-serif" font-size="22" font-weight="600" letter-spacing="2">
<tspan fill="#C0392B">DRAG</tspan><tspan fill="#ffffff">ON</tspan>
</text>
</svg>
